<?xml version="1.0" encoding="utf-8"?>
<!-- Generator: Adobe Illustrator 27.4.0, SVG Export Plug-In . SVG Version: 6.00 Build 0)  -->
<svg version="1.1" id="Layer_1" xmlns="http://www.w3.org/2000/svg" xmlns:xlink="http://www.w3.org/1999/xlink" x="0px" y="0px"
	 viewBox="0 0 100 100" style="enable-background:new 0 0 100 100;" xml:space="preserve">
<style type="text/css">
	.st0{fill:#FF3038;}
	.st1{fill:#FFFFFF;}
	.st2{fill:#404262;}
	.st3{fill:#676C97;}
	.st4{fill:#5FCED1;}
	.st5{fill:#D6E1E9;}
	.st6{fill:#FF6D73;}
</style>
<g>
	<g>
		<path class="st0" d="M24.62,56.44l37.67,1.66l28.73-6.44l6.55-7.95v0C94.49,20.17,74.38,2,50,2S5.51,20.17,2.42,43.71l6.31,7.43
			L24.62,56.44z"/>
		<path class="st1" d="M97.95,52.09l-2.77-0.12l-7.02,3.03l-12.13,3.09l-22.35,3.77l-23.94-2.39l-17.4-3.04l-2.14-1.96l-8.14-2.38
			C3.15,77.63,24.19,98,50,98C75.81,98,96.85,77.63,97.95,52.09L97.95,52.09z"/>
		<path class="st2" d="M2.42,43.71C2.15,45.77,2,47.87,2,50c0,0.7,0.02,1.4,0.05,2.09C12.04,59.33,29.77,64.14,50,64.14
			s37.96-4.82,47.95-12.05C97.98,51.4,98,50.7,98,50c0-2.13-0.15-4.23-0.42-6.29C87.53,50.8,69.99,55.5,50,55.5
			S12.47,50.8,2.42,43.71z"/>
		<g>
			<circle class="st2" cx="50" cy="59.16" r="21.06"/>
			<circle class="st3" cx="50" cy="59.16" r="13.74"/>
			<circle class="st4" cx="50" cy="59.16" r="8.54"/>
		</g>
		<path class="st5" d="M6.19,69.6C13.68,86.33,30.47,98,50,98c19.13,0,35.64-11.2,43.35-27.4C55.71,92.57,22.6,79.41,6.19,69.6z"/>
	</g>
	
		<ellipse transform="matrix(0.9339 -0.3576 0.3576 0.9339 -4.2222 13.5051)" class="st6" cx="34.4" cy="18.17" rx="10.39" ry="6.72"/>
</g>
</svg>
